<svg enable-background="new 0 0 96 96" viewBox="0 0 96 96" xmlns="http://www.w3.org/2000/svg"><path d="m56.608 12c3.312 0 6.402 1.639 8.261 4.364l.176.267 4.053 6.369h7.902c7.628 0 13.83 6.1 13.997 13.687l.003.313v33c0 7.628-6.1 13.83-13.687 13.997l-.313.003h-58c-7.628 0-13.83-6.1-13.997-13.687l-.003-.313v-33c0-7.628 6.1-13.83 13.687-13.997l.313-.003h7.902l4.053-6.369c1.778-2.794 4.82-4.521 8.117-4.626l.32-.005zm-8.608 20c-9.941 0-18 8.059-18 18s8.059 18 18 18 18-8.059 18-18-8.059-18-18-18zm0 6c6.627 0 12 5.373 12 12s-5.373 12-12 12-12-5.373-12-12 5.373-12 12-12z" fill-opacity=".9"/></svg>